<svg width="160" height="160" viewBox="0 0 160 160" fill="none" xmlns="http://www.w3.org/2000/svg">
<path d="M79.9999 159.167C36.2762 159.167 0.833252 123.724 0.833252 80C0.833252 36.2763 36.2762 0.833336 79.9999 0.833336C123.724 0.833336 159.167 36.2763 159.167 80C159.167 123.724 123.724 159.167 79.9999 159.167ZM79.9999 143.333C96.797 143.333 112.906 136.661 124.783 124.783C136.661 112.906 143.333 96.797 143.333 80C143.333 63.203 136.661 47.0939 124.783 35.2166C112.906 23.3393 96.797 16.6667 79.9999 16.6667C63.2029 16.6667 47.0938 23.3393 35.2165 35.2166C23.3392 47.0939 16.6666 63.203 16.6666 80C16.6666 96.797 23.3392 112.906 35.2165 124.783C47.0938 136.661 63.2029 143.333 79.9999 143.333ZM69.0908 51.6188L107.716 77.3637C108.151 77.6528 108.507 78.0447 108.753 78.5046C108.999 78.9646 109.128 79.4782 109.128 80C109.128 80.5218 108.999 81.0354 108.753 81.4954C108.507 81.9553 108.151 82.3472 107.716 82.6363L69.0828 108.381C68.6065 108.697 68.0535 108.878 67.4827 108.905C66.9118 108.932 66.3442 108.804 65.8402 108.534C65.3362 108.265 64.9145 107.864 64.6199 107.374C64.3252 106.885 64.1686 106.324 64.1666 105.753V54.2471C64.1676 53.6743 64.324 53.1126 64.6191 52.6216C64.9141 52.1307 65.3368 51.729 65.8421 51.4593C66.3474 51.1896 66.9164 51.062 67.4885 51.0901C68.0605 51.1182 68.6143 51.3009 69.0908 51.6188Z" fill="black"/>
</svg>
