<svg width="134" height="121" viewBox="0 0 134 121" fill="none" xmlns="http://www.w3.org/2000/svg">
<path d="M19.1867 120L19.0534 120.133L18.9134 120H6.94671C5.19213 119.998 3.51002 119.3 2.26997 118.059C1.02992 116.817 0.333373 115.135 0.333374 113.38V6.62C0.345574 4.86919 1.04604 3.19345 2.28346 1.95478C3.52088 0.71612 5.19591 0.0139643 6.94671 0H127.053C130.707 0 133.667 2.96667 133.667 6.62V113.38C133.655 115.131 132.954 116.807 131.717 118.045C130.479 119.284 128.804 119.986 127.053 120H19.1867ZM120.333 80V13.3333H13.6667V106.667L80.3334 40L120.333 80ZM120.333 98.8533L80.3334 58.8533L32.52 106.667H120.333V98.8533ZM40.3334 53.3333C36.7972 53.3333 33.4058 51.9286 30.9053 49.4281C28.4048 46.9276 27 43.5362 27 40C27 36.4638 28.4048 33.0724 30.9053 30.5719C33.4058 28.0714 36.7972 26.6667 40.3334 26.6667C43.8696 26.6667 47.261 28.0714 49.7615 30.5719C52.2619 33.0724 53.6667 36.4638 53.6667 40C53.6667 43.5362 52.2619 46.9276 49.7615 49.4281C47.261 51.9286 43.8696 53.3333 40.3334 53.3333Z" fill="black"/>
</svg>
